# xmcd
#
# Track frame offsets:
#	150
#	13870
#	29943
#	49452
#	68673
#	86283
#	97640
#	111186
#	123902
#	133670
#	151445
#	167487
#	179523
#	196334
#	215102
#	219422
#	231903
#	242410
#	258264
#	276331
#
# Disc length: 3929 seconds
#
# Revision: 1
# Processed by: cddbd v1.5.2PL0 Copyright (c) Steve Scherf et al.
# Submitted via: audiograbber 1.83.01
#
DISCID=1f0f5714
DTITLE=Jörg KO Kokott - Kokott Solo live
DYEAR=2016
DGENRE=Deutsch
TTITLE0=Zonder Woorden
TTITLE1=Der krieger über Fünfzig
TTITLE2=Wind über den Dächern
TTITLE3=Zwanzig Mark
TTITLE4=Abends, wenn ich noch nicht schlafen kann
TTITLE5=Pastorale
TTITLE6=Lächeln
TTITLE7=Neues Liebeslied
TTITLE8=Unterm Baum stehn
TTITLE9=Frag Niemals
TTITLE10=Sieben Grappasorten
TTITLE11=Tanzstück für Herrn Glier in M.
TTITLE12=Holiday
TTITLE13=Melanie
TTITLE14=Zur Teleologie
TTITLE15=Die Wahlesel
TTITLE16=Wandermüde
TTITLE17=Atem
TTITLE18=Wir heben ab
TTITLE19=Hände halten
EXTD=
EXTT0=
EXTT1=
EXTT2=
EXTT3=
EXTT4=
EXTT5=
EXTT6=
EXTT7=
EXTT8=
EXTT9=
EXTT10=
EXTT11=
EXTT12=
EXTT13=
EXTT14=
EXTT15=
EXTT16=
EXTT17=
EXTT18=
EXTT19=
PLAYORDER=
